<svg width="140" height="28" viewBox="0 0 140 28" fill="none" xmlns="http://www.w3.org/2000/svg">
<g clip-path="url(#clip0_170_1720)">
<g clip-path="url(#clip1_170_1720)">
<g clip-path="url(#clip2_170_1720)">
<path d="M77 0.5C77 0.223858 76.7761 0 76.5 0C76.2239 0 76 0.223858 76 0.5V23.5C76 23.7761 76.2239 24 76.5 24C76.7761 24 77 23.7761 77 23.5V0.5Z" fill="#555555"/>
<path d="M94.3761 23.5728C94.6632 23.5859 94.9242 23.4879 95.1591 23.2788C95.3548 23.0959 95.4592 22.8541 95.4723 22.5536C95.4853 22.2531 95.4005 21.9983 95.2178 21.7892L92.0468 17.9084C92.4774 17.8169 92.8787 17.6732 93.2506 17.4772C93.6225 17.2812 93.9422 17.0264 94.2097 16.7128C94.4772 16.3992 94.6893 16.0203 94.8459 15.576C95.0025 15.1317 95.0808 14.6156 95.0808 14.0276C95.0808 13.322 94.9601 12.6981 94.7187 12.1558C94.4772 11.6135 94.1477 11.1627 93.7302 10.8034C93.3126 10.4441 92.8297 10.1697 92.2817 9.9802C91.7336 9.79073 91.1463 9.696 90.52 9.696H86.5268C86.0309 9.696 85.6525 9.84627 85.3915 10.1468C85.1305 10.4473 85 10.8067 85 11.2248V22.4752C85 22.7757 85.1011 23.0338 85.3034 23.2494C85.5057 23.465 85.7503 23.5728 86.0374 23.5728C86.3245 23.5728 86.5725 23.465 86.7813 23.2494C86.9901 23.0338 87.0945 22.7757 87.0945 22.4752V18.3592H89.1302C89.4042 18.3592 89.6163 18.4147 89.7663 18.5258C89.9164 18.6369 90.0698 18.7904 90.2263 18.9864L93.6519 23.22C93.8476 23.4421 94.089 23.5597 94.3761 23.5728ZM90.2851 16.36H87.0945V11.7344H90.3829C91.2703 11.7344 91.9228 11.9369 92.3404 12.342C92.758 12.7471 92.9668 13.3155 92.9668 14.0472C92.9668 14.7528 92.7678 15.3147 92.3697 15.7328C91.9717 16.1509 91.2768 16.36 90.2851 16.36ZM101.854 23.6708C102.141 23.6708 102.437 23.6545 102.744 23.6218C103.051 23.5891 103.344 23.5434 103.625 23.4846C103.906 23.4258 104.167 23.3539 104.408 23.269C104.649 23.1841 104.855 23.0893 105.025 22.9848C105.246 22.8541 105.39 22.7137 105.455 22.5634C105.52 22.4131 105.553 22.2596 105.553 22.1028C105.553 21.9591 105.52 21.8219 105.455 21.6912C105.39 21.5605 105.295 21.4527 105.171 21.3678C105.047 21.2829 104.897 21.2306 104.721 21.211C104.545 21.1914 104.353 21.2208 104.144 21.2992C103.765 21.4429 103.384 21.5573 102.999 21.6422C102.614 21.7271 102.245 21.7696 101.893 21.7696C101.123 21.7696 100.5 21.5605 100.023 21.1424C99.547 20.7243 99.3088 20.1232 99.3088 19.3392V19.104H104.848C105.279 19.104 105.595 18.9864 105.798 18.7512C106 18.516 106.101 18.2155 106.101 17.8496V17.3008C106.101 16.6475 105.997 16.0497 105.788 15.5074C105.579 14.9651 105.286 14.5013 104.907 14.1158C104.529 13.7303 104.072 13.4331 103.537 13.224C103.002 13.0149 102.408 12.9104 101.756 12.9104C101.142 12.9104 100.571 13.0051 100.043 13.1946C99.5144 13.3841 99.0544 13.6585 98.6629 14.0178C98.2714 14.3771 97.9582 14.8116 97.7233 15.3212C97.4884 15.8308 97.3449 16.3992 97.2927 17.0264C97.2796 17.1832 97.2699 17.3629 97.2633 17.5654C97.2568 17.7679 97.2535 17.977 97.2535 18.1926C97.2535 18.4082 97.2568 18.6271 97.2633 18.8492C97.2699 19.0713 97.2796 19.2739 97.2927 19.4568C97.3318 20.0709 97.4656 20.6361 97.694 21.1522C97.9223 21.6683 98.2323 22.1126 98.6237 22.485C99.0152 22.8574 99.4818 23.1481 100.023 23.3572C100.565 23.5663 101.175 23.6708 101.854 23.6708ZM103.85 17.4576H99.3088C99.2827 16.6344 99.4752 15.9778 99.8863 15.4878C100.297 14.9978 100.92 14.7528 101.756 14.7528C102.513 14.7528 103.103 14.9782 103.527 15.429C103.951 15.8798 104.137 16.4776 104.085 17.2224C104.059 17.3792 103.981 17.4576 103.85 17.4576ZM111.758 23.6708C112.267 23.6708 112.74 23.6316 113.177 23.5532C113.614 23.4748 114.006 23.3768 114.352 23.2592C114.698 23.1416 114.994 23.0207 115.242 22.8966C115.49 22.7725 115.686 22.6647 115.83 22.5732C115.973 22.4687 116.071 22.3609 116.123 22.2498C116.175 22.1387 116.202 21.9917 116.202 21.8088V16.7128C116.202 15.3931 115.839 14.4294 115.115 13.8218C114.391 13.2142 113.402 12.9104 112.15 12.9104C111.549 12.9104 110.972 12.9725 110.417 13.0966C109.863 13.2207 109.442 13.3547 109.155 13.4984C108.894 13.616 108.714 13.763 108.616 13.9394C108.519 14.1158 108.47 14.2889 108.47 14.4588C108.47 14.7593 108.6 15.0011 108.861 15.184C109.122 15.3669 109.468 15.3865 109.899 15.2428C110.173 15.1383 110.496 15.0403 110.868 14.9488C111.239 14.8573 111.628 14.8116 112.032 14.8116C112.802 14.8116 113.357 14.9619 113.696 15.2624C114.035 15.5629 114.205 16.0464 114.205 16.7128V17.3596C113.748 17.2551 113.334 17.1734 112.962 17.1146C112.59 17.0558 112.176 17.0264 111.719 17.0264C111.027 17.0264 110.434 17.1146 109.938 17.291C109.442 17.4674 109.031 17.7059 108.705 18.0064C108.378 18.3069 108.137 18.6532 107.98 19.0452C107.824 19.4372 107.745 19.8488 107.745 20.28C107.745 20.7635 107.83 21.211 108 21.6226C108.169 22.0342 108.421 22.3935 108.753 22.7006C109.086 23.0077 109.504 23.2461 110.006 23.416C110.509 23.5859 111.093 23.6708 111.758 23.6708ZM111.934 21.848C111.23 21.848 110.695 21.7075 110.329 21.4266C109.964 21.1457 109.781 20.7373 109.781 20.2016C109.781 19.7312 109.974 19.3686 110.359 19.1138C110.744 18.859 111.236 18.7316 111.836 18.7316C112.28 18.7316 112.678 18.761 113.03 18.8198C113.383 18.8786 113.774 18.9603 114.205 19.0648V21.2404C114.101 21.3188 113.866 21.4397 113.5 21.603C113.135 21.7663 112.613 21.848 111.934 21.848ZM119.823 23.5532C120.123 23.5532 120.371 23.4519 120.567 23.2494C120.762 23.0469 120.86 22.7953 120.86 22.4948V10.5584C120.86 10.2579 120.759 10.0063 120.557 9.8038C120.355 9.60127 120.11 9.5 119.823 9.5C119.523 9.5 119.275 9.60127 119.079 9.8038C118.883 10.0063 118.785 10.2579 118.785 10.5584V22.4948C118.785 22.7953 118.89 23.0469 119.099 23.2494C119.307 23.4519 119.549 23.5532 119.823 23.5532ZM126.733 23.6708C127.111 23.6708 127.496 23.6414 127.887 23.5826C128.279 23.5238 128.625 23.4291 128.925 23.2984C129.186 23.1939 129.369 23.0567 129.473 22.8868C129.577 22.7169 129.63 22.534 129.63 22.338C129.63 22.1943 129.6 22.0538 129.541 21.9166C129.483 21.7794 129.401 21.6683 129.297 21.5834C129.192 21.4985 129.059 21.4364 128.895 21.3972C128.732 21.358 128.553 21.3645 128.357 21.4168C128.135 21.4821 127.91 21.5475 127.682 21.6128C127.453 21.6781 127.209 21.7108 126.948 21.7108C126.465 21.7108 126.113 21.5769 125.891 21.309C125.669 21.0411 125.558 20.6589 125.558 20.1624V15.282H128.259C128.52 15.282 128.749 15.1938 128.944 15.0174C129.14 14.841 129.238 14.6221 129.238 14.3608C129.238 14.0995 129.14 13.8806 128.944 13.7042C128.749 13.5278 128.52 13.4396 128.259 13.4396H125.558V11.95C125.558 11.6495 125.457 11.3979 125.255 11.1954C125.052 10.9929 124.808 10.8916 124.521 10.8916C124.22 10.8916 123.973 10.9929 123.777 11.1954C123.581 11.3979 123.483 11.6495 123.483 11.95V20.1428C123.483 20.6393 123.548 21.1032 123.679 21.5344C123.809 21.9656 124.008 22.338 124.276 22.6516C124.543 22.9652 124.879 23.2135 125.284 23.3964C125.689 23.5793 126.171 23.6708 126.733 23.6708ZM132.683 27.2968C132.97 27.2968 133.264 27.1988 133.564 27.0028C133.968 26.7415 134.415 26.2972 134.905 25.67C135.394 25.0428 135.835 24.2588 136.226 23.318L139.906 14.5568C139.984 14.3739 140.014 14.1909 139.994 14.008C139.975 13.8251 139.916 13.6617 139.818 13.518C139.72 13.3743 139.596 13.2599 139.446 13.175C139.296 13.0901 139.123 13.0476 138.927 13.0476C138.666 13.0476 138.448 13.1227 138.272 13.273C138.095 13.4233 137.962 13.6225 137.87 13.8708L135.443 20.1624C135.417 20.2016 135.384 20.2212 135.345 20.2212C135.306 20.2212 135.28 20.2016 135.267 20.1624L132.624 13.8316C132.546 13.6095 132.419 13.4233 132.243 13.273C132.067 13.1227 131.841 13.0476 131.567 13.0476C131.398 13.0476 131.238 13.0901 131.088 13.175C130.938 13.2599 130.814 13.371 130.716 13.5082C130.618 13.6454 130.559 13.8055 130.54 13.9884C130.52 14.1713 130.55 14.3608 130.628 14.5568L134.19 22.7692C133.929 23.4748 133.61 24.0465 133.231 24.4842C132.853 24.9219 132.487 25.2519 132.135 25.474C131.991 25.5785 131.884 25.7092 131.812 25.866C131.74 26.0228 131.704 26.1731 131.704 26.3168C131.704 26.6173 131.802 26.8558 131.998 27.0322C132.194 27.2086 132.422 27.2968 132.683 27.2968Z" fill="#555555"/>
<path d="M6.66986 24C7.51579 24 8.30207 23.9343 9.02871 23.803C9.75534 23.6717 10.4061 23.5075 10.9809 23.3105C11.5557 23.1135 12.0491 22.9111 12.4612 22.7031C12.8734 22.4952 13.1987 22.3146 13.4373 22.1614C13.6759 21.9863 13.8386 21.8057 13.9254 21.6197C14.0121 21.4337 14.0555 21.1874 14.0555 20.881V12.3447C14.0555 10.1341 13.4536 8.51984 12.2498 7.50205C11.0459 6.48427 9.40287 5.97538 7.32057 5.97538C6.32281 5.97538 5.363 6.07934 4.44115 6.28728C3.5193 6.49521 2.81978 6.71956 2.34258 6.96033C1.90877 7.15732 1.61053 7.40356 1.44785 7.69904C1.28517 7.99453 1.20383 8.28454 1.20383 8.56908C1.20383 9.0725 1.42073 9.47743 1.85455 9.78386C2.28836 10.0903 2.86316 10.1231 3.57895 9.88235C4.03445 9.70725 4.57129 9.54309 5.18947 9.38988C5.80766 9.23666 6.45295 9.16006 7.12536 9.16006C8.4051 9.16006 9.32695 9.41177 9.89091 9.91518C10.4549 10.4186 10.7368 11.2285 10.7368 12.3447V13.4282C9.97767 13.2531 9.289 13.1163 8.67081 13.0178C8.05263 12.9193 7.36396 12.87 6.60478 12.87C5.45518 12.87 4.46826 13.0178 3.64402 13.3133C2.81978 13.6088 2.13652 14.0082 1.59426 14.5116C1.05199 15.015 0.650718 15.5951 0.390431 16.2517C0.130144 16.9083 0 17.5978 0 18.3201C0 19.13 0.140989 19.8796 0.422967 20.5691C0.704944 21.2586 1.12249 21.8605 1.6756 22.3748C2.22871 22.8892 2.92281 23.2886 3.75789 23.5732C4.59298 23.8577 5.56364 24 6.66986 24ZM6.96268 20.9466C5.79139 20.9466 4.90207 20.7114 4.29474 20.2408C3.6874 19.7702 3.38373 19.0862 3.38373 18.1888C3.38373 17.4008 3.70367 16.7934 4.34354 16.3666C4.98341 15.9398 5.80223 15.7264 6.8 15.7264C7.53748 15.7264 8.19904 15.7756 8.78469 15.8741C9.37033 15.9726 10.0211 16.1094 10.7368 16.2845V19.9289C10.5633 20.0602 10.1729 20.2627 9.56555 20.5363C8.95821 20.8098 8.09059 20.9466 6.96268 20.9466ZM22.9378 24C23.7187 24 24.467 23.9234 25.1828 23.7702C25.8986 23.617 26.5439 23.4309 27.1187 23.212C27.6935 22.9932 28.1923 22.7688 28.6153 22.539C29.0383 22.3092 29.3582 22.1176 29.5751 21.9644C29.8354 21.7893 30.0035 21.6033 30.0794 21.4063C30.1553 21.2093 30.1933 20.9576 30.1933 20.6512V2.00274C30.1933 1.49932 30.0306 1.07798 29.7053 0.738714C29.3799 0.399453 28.9678 0.229822 28.4689 0.229822C27.9917 0.229822 27.585 0.399453 27.2488 0.738714C26.9126 1.07798 26.7445 1.49932 26.7445 2.00274V6.9275C26.2022 6.68673 25.5515 6.46785 24.7923 6.27086C24.0332 6.07387 23.2632 5.97538 22.4823 5.97538C20.3783 5.97538 18.7352 6.56088 17.5531 7.73187C16.371 8.90287 15.6931 10.5171 15.5196 12.5746C15.4979 12.881 15.4817 13.2367 15.4708 13.6416C15.46 14.0465 15.4545 14.4679 15.4545 14.9056C15.4545 15.3434 15.46 15.7702 15.4708 16.186C15.4817 16.6019 15.4979 16.9521 15.5196 17.2367C15.6064 18.2435 15.8341 19.1628 16.2029 19.9945C16.5716 20.8263 17.0759 21.5376 17.7158 22.1286C18.3557 22.7196 19.1094 23.1792 19.977 23.5075C20.8447 23.8358 21.8316 24 22.9378 24ZM23.0029 20.6512C20.5085 20.6512 19.1636 19.3707 18.9684 16.8098C18.9467 16.5472 18.9305 16.2462 18.9196 15.907C18.9088 15.5677 18.9033 15.2175 18.9033 14.8564C18.9033 14.4952 18.9088 14.145 18.9196 13.8057C18.9305 13.4665 18.9467 13.1874 18.9684 12.9685C19.0335 11.7647 19.3697 10.8564 19.977 10.2435C20.5844 9.63064 21.5062 9.32421 22.7426 9.32421C23.5885 9.32421 24.3802 9.43912 25.1177 9.66895C25.8552 9.89877 26.3974 10.1231 26.7445 10.342V19.4692C26.571 19.6005 26.3486 19.7319 26.0775 19.8632C25.8064 19.9945 25.4973 20.1204 25.1502 20.2408C24.8032 20.3611 24.4453 20.4596 24.0766 20.5363C23.7078 20.6129 23.3499 20.6512 23.0029 20.6512ZM38.2947 24C39.1407 24 39.927 23.9343 40.6536 23.803C41.3802 23.6717 42.0309 23.5075 42.6057 23.3105C43.1805 23.1135 43.674 22.9111 44.0861 22.7031C44.4982 22.4952 44.8236 22.3146 45.0622 22.1614C45.3008 21.9863 45.4635 21.8057 45.5502 21.6197C45.637 21.4337 45.6804 21.1874 45.6804 20.881V12.3447C45.6804 10.1341 45.0785 8.51984 43.8746 7.50205C42.6708 6.48427 41.0278 5.97538 38.9455 5.97538C37.9477 5.97538 36.9879 6.07934 36.066 6.28728C35.1442 6.49521 34.4447 6.71956 33.9675 6.96033C33.5337 7.15732 33.2354 7.40356 33.0727 7.69904C32.91 7.99453 32.8287 8.28454 32.8287 8.56908C32.8287 9.0725 33.0456 9.47743 33.4794 9.78386C33.9132 10.0903 34.488 10.1231 35.2038 9.88235C35.6593 9.70725 36.1962 9.54309 36.8144 9.38988C37.4325 9.23666 38.0778 9.16006 38.7502 9.16006C40.03 9.16006 40.9518 9.41177 41.5158 9.91518C42.0797 10.4186 42.3617 11.2285 42.3617 12.3447V13.4282C41.6026 13.2531 40.9139 13.1163 40.2957 13.0178C39.6775 12.9193 38.9888 12.87 38.2297 12.87C37.0801 12.87 36.0931 13.0178 35.2689 13.3133C34.4447 13.6088 33.7614 14.0082 33.2191 14.5116C32.6769 15.015 32.2756 15.5951 32.0153 16.2517C31.755 16.9083 31.6249 17.5978 31.6249 18.3201C31.6249 19.13 31.7659 19.8796 32.0478 20.5691C32.3298 21.2586 32.7474 21.8605 33.3005 22.3748C33.8536 22.8892 34.5477 23.2886 35.3828 23.5732C36.2179 23.8577 37.1885 24 38.2947 24ZM38.5876 20.9466C37.4163 20.9466 36.527 20.7114 35.9196 20.2408C35.3123 19.7702 35.0086 19.0862 35.0086 18.1888C35.0086 17.4008 35.3285 16.7934 35.9684 16.3666C36.6083 15.9398 37.4271 15.7264 38.4249 15.7264C39.1624 15.7264 39.8239 15.7756 40.4096 15.8741C40.9952 15.9726 41.6459 16.1094 42.3617 16.2845V19.9289C42.1882 20.0602 41.7978 20.2627 41.1904 20.5363C40.5831 20.8098 39.7155 20.9466 38.5876 20.9466ZM60.4517 23.803C60.9506 23.803 61.3627 23.6334 61.688 23.2941C62.0134 22.9549 62.1761 22.5335 62.1761 22.0301V12.9029C62.1761 10.6703 61.5796 8.95759 60.3866 7.76471C59.1936 6.57182 57.415 5.97538 55.0507 5.97538C54.2048 5.97538 53.4185 6.03557 52.6919 6.15595C51.9652 6.27633 51.3199 6.42955 50.756 6.61559C50.192 6.80164 49.704 6.99863 49.2919 7.20657C48.8797 7.4145 48.5544 7.60602 48.3158 7.78112C48.0772 7.95622 47.9037 8.1368 47.7952 8.32285C47.6868 8.50889 47.6325 8.77702 47.6325 9.12722V22.0301C47.6325 22.5335 47.8061 22.9549 48.1531 23.2941C48.5002 23.6334 48.9014 23.803 49.3569 23.803C49.8558 23.803 50.2679 23.6334 50.5933 23.2941C50.9187 22.9549 51.0813 22.5335 51.0813 22.0301V10.2435C51.4501 10.0027 51.9869 9.78933 52.6919 9.60328C53.3968 9.41724 54.1506 9.32421 54.9531 9.32421C55.452 9.32421 55.9292 9.39535 56.3847 9.53762C56.8402 9.67989 57.2415 9.90424 57.5885 10.2107C57.9356 10.5171 58.2121 10.9056 58.4182 11.3762C58.6242 11.8468 58.7273 12.4104 58.7273 13.067V22.0301C58.7273 22.5335 58.9008 22.9549 59.2478 23.2941C59.5949 23.6334 59.9962 23.803 60.4517 23.803ZM66.0804 3.93981C66.6227 3.93981 67.0781 3.74282 67.4469 3.34884C67.8156 2.95486 68 2.48427 68 1.93707C68 1.38988 67.8156 0.930233 67.4469 0.55814C67.0781 0.186046 66.6227 0 66.0804 0C65.5164 0 65.0501 0.186046 64.6813 0.55814C64.3126 0.930233 64.1282 1.38988 64.1282 1.93707C64.1282 2.48427 64.3126 2.95486 64.6813 3.34884C65.0501 3.74282 65.5164 3.93981 66.0804 3.93981ZM66.0804 23.803C66.5793 23.803 66.9914 23.6334 67.3167 23.2941C67.6421 22.9549 67.8048 22.5335 67.8048 22.0301V7.97811C67.8048 7.47469 67.6367 7.05335 67.3005 6.71409C66.9643 6.37483 66.5576 6.2052 66.0804 6.2052C65.5815 6.2052 65.1694 6.37483 64.844 6.71409C64.5187 7.05335 64.356 7.47469 64.356 7.97811V22.0301C64.356 22.5335 64.5295 22.9549 64.8766 23.2941C65.2236 23.6334 65.6249 23.803 66.0804 23.803Z" fill="url(#paint0_linear_170_1720)"/>
</g>
</g>
</g>
<defs>
<linearGradient id="paint0_linear_170_1720" x1="0" y1="857.531" x2="6800" y2="857.531" gradientUnits="userSpaceOnUse">
<stop stop-color="#1C84A6"/>
<stop offset="0.252712" stop-color="#386BB2"/>
<stop offset="0.494423" stop-color="#7356A3"/>
<stop offset="0.716984" stop-color="#903B94"/>
<stop offset="1" stop-color="#C54961"/>
</linearGradient>
<clipPath id="clip0_170_1720">
<rect width="140" height="28" fill="white"/>
</clipPath>
<clipPath id="clip1_170_1720">
<rect width="140" height="28" fill="white"/>
</clipPath>
<clipPath id="clip2_170_1720">
<rect width="140" height="28" fill="white"/>
</clipPath>
</defs>
</svg>
